<svg id="Icon_ionic-ios-body" data-name="Icon ionic-ios-body" xmlns="http://www.w3.org/2000/svg" width="83.86" height="97.83" viewBox="0 0 83.86 97.83">
  <path id="Tracé_3" data-name="Tracé 3" d="M35.59,12.733A10.483,10.483,0,1,1,25.108,2.25,10.483,10.483,0,0,1,35.59,12.733Z" transform="translate(16.823 -2.25)"/>
  <path id="Tracé_4" data-name="Tracé 4" d="M83.119,10.125H9.741a5.241,5.241,0,0,0,0,10.483H31.252a4.623,4.623,0,0,1,3.756,3.1c1.026,2.642.524,7.338-.109,11.291l-.83,4.673a.08.08,0,0,1-.022.066h0L27.409,77.344a5.244,5.244,0,0,0,4.259,6.071,5.19,5.19,0,0,0,6.027-4.259l4.586-26.184v.044s1.354-7.1,4.04-7.1h.24c2.73,0,4.04,7.1,4.04,7.1v-.022l4.586,26.184a5.224,5.224,0,1,0,10.286-1.834L58.834,39.738h0a.08.08,0,0,0-.022-.066L57.983,35c-.633-3.953-1.136-8.648-.109-11.291a4.623,4.623,0,0,1,3.756-3.1H83.119a5.241,5.241,0,0,0,0-10.483Z" transform="translate(-4.5 14.334)"/>
</svg>
