<svg id="Icon_ionic-logo-game-controller-b" data-name="Icon ionic-logo-game-controller-b" xmlns="http://www.w3.org/2000/svg" width="92.714" height="66.195" viewBox="0 0 92.714 66.195">
  <path id="Tracé_1" data-name="Tracé 1" d="M12.136,14.386A4.014,4.014,0,1,0,16.129,18.4,4,4,0,0,0,12.136,14.386Z" transform="translate(9.208 8.065)"/>
  <path id="Tracé_2" data-name="Tracé 2" d="M92.123,38.375C87.737,20.062,83.1,10.337,73.811,7.585a18.457,18.457,0,0,0-5.318-.828c-5.711,0-9.7,3.042-19.885,3.042S34.433,6.757,28.722,6.757a18.253,18.253,0,0,0-5.318.828c-9.291,2.752-13.926,12.5-18.313,30.79C.7,56.688,1.512,69.91,6.685,72.372a6.037,6.037,0,0,0,2.587.579c4.49,0,9.332-4.925,14.009-10.76C28.6,55.55,29.922,55.363,46.1,55.363h5.028c16.161,0,17.506.166,22.824,6.828,4.656,5.835,9.518,10.76,14.009,10.76a6.1,6.1,0,0,0,2.587-.579C95.7,69.889,96.489,56.667,92.123,38.375ZM23.611,41.417a8.195,8.195,0,1,1,8.111-8.194A8.169,8.169,0,0,1,23.611,41.417Zm35.777-4.035a4.159,4.159,0,1,1,4.159-4.159A4.159,4.159,0,0,1,59.388,37.382Zm9.084,9.084a4.149,4.149,0,1,1,4.159-4.138A4.155,4.155,0,0,1,68.472,46.466Zm0-18.168a4.159,4.159,0,1,1,4.159-4.159A4.159,4.159,0,0,1,68.472,28.3Zm9.084,9.084a4.159,4.159,0,1,1,4.159-4.159A4.159,4.159,0,0,1,77.556,37.382Z" transform="translate(-2.247 -6.757)"/>
</svg>
