<?xml version="1.0" encoding="UTF-8" standalone="no"?>
<!DOCTYPE svg PUBLIC "-//W3C//DTD SVG 1.1//EN" "http://www.w3.org/Graphics/SVG/1.1/DTD/svg11.dtd">
<svg version="1.1" xmlns="http://www.w3.org/2000/svg" xmlns:xlink="http://www.w3.org/1999/xlink" preserveAspectRatio="xMidYMid meet" viewBox="0 0 640 640" width="100" height="100"><defs><path d="M509.95 583.09L509.95 411.64L566.86 411.64L566.86 640L53.23 640L53.23 411.64L110.14 411.64L110.14 583.09L509.95 583.09Z" id="dq7sh1cPN"></path><path d="M452.31 453.76L464.13 397.6L184.78 339.21L172.95 395.38L452.31 453.76ZM468.57 382.82L492.21 331.09L233.55 209.88L209.9 262.36L468.57 382.82ZM501.08 317.78L537.3 274.18L317.8 91.64L281.59 135.24L501.08 317.78ZM377.66 34L547.64 263.09L593.46 229.1L423.48 0L377.66 34ZM452.31 525.45L452.31 468.55L167.04 468.55L167.04 525.45L452.31 525.45Z" id="a5vSrDpNMN"></path></defs><g><g><g><use xlink:href="#dq7sh1cPN" opacity="1" fill="#bcbbbb" fill-opacity="1"></use><g><use xlink:href="#dq7sh1cPN" opacity="1" fill-opacity="0" stroke="#000000" stroke-width="1" stroke-opacity="0"></use></g></g><g><use xlink:href="#a5vSrDpNMN" opacity="1" fill="#f48023" fill-opacity="1"></use><g><use xlink:href="#a5vSrDpNMN" opacity="1" fill-opacity="0" stroke="#000000" stroke-width="1" stroke-opacity="0"></use></g></g></g></g></svg>