<?xml version="1.0" encoding="UTF-8" standalone="no"?>
<!DOCTYPE svg PUBLIC "-//W3C//DTD SVG 1.1//EN" "http://www.w3.org/Graphics/SVG/1.1/DTD/svg11.dtd">
<svg version="1.1" xmlns="http://www.w3.org/2000/svg" xmlns:xlink="http://www.w3.org/1999/xlink" preserveAspectRatio="xMidYMid meet" viewBox="0 0 640 640" width="100" height="100"><defs><path d="M320 0C143.27 0 0.01 143.27 0.01 320C0.01 496.73 143.27 639.99 320 639.99C496.73 639.99 640 496.73 640 320C640 143.27 496.73 0 320 0Z" id="aXKCgvKA"></path><path d="M472.08 242C487.87 232.54 499.99 217.57 505.72 199.69C490.94 208.46 474.56 214.82 457.14 218.25C443.19 203.39 423.31 194.1 401.3 194.1C359.07 194.1 324.81 228.36 324.81 270.59C324.81 276.59 325.49 282.42 326.8 288.02C263.23 284.84 206.87 254.39 169.14 208.1C162.56 219.39 158.78 232.54 158.78 246.55C158.78 273.09 172.3 296.51 192.81 310.22C180.28 309.83 168.48 306.39 158.17 300.64C158.16 300.97 158.16 301.29 158.16 301.61C158.16 338.67 184.54 369.58 219.52 376.61C213.11 378.36 206.34 379.29 199.38 379.29C194.44 379.29 189.65 378.82 184.98 377.93C194.71 408.31 222.96 430.43 256.43 431.05C230.25 451.57 197.28 463.79 161.43 463.79C155.27 463.79 149.17 463.43 143.19 462.72C177.03 484.43 217.24 497.09 260.43 497.09C401.12 497.09 478.06 380.54 478.06 279.45C478.06 276.14 477.99 272.83 477.84 269.56C492.8 258.78 505.76 245.31 516.01 229.97C516.01 229.97 516.01 229.97 516.01 229.97C497.04 236.77 482.39 240.78 472.08 242Z" id="a4x3ooa5Dd"></path></defs><g><g><g><use xlink:href="#aXKCgvKA" opacity="1" fill="#000000" fill-opacity="1"></use><g><use xlink:href="#aXKCgvKA" opacity="1" fill-opacity="0" stroke="#000000" stroke-width="1" stroke-opacity="0"></use></g></g><g><use xlink:href="#a4x3ooa5Dd" opacity="1" fill="#f1f2f2" fill-opacity="1"></use><g><use xlink:href="#a4x3ooa5Dd" opacity="1" fill-opacity="0" stroke="#000000" stroke-width="1" stroke-opacity="0"></use></g></g></g></g></svg>